<?xml version="1.0" standalone="no"?>
<!DOCTYPE svg PUBLIC "-//W3C//DTD SVG 20010904//EN"
 "http://www.w3.org/TR/2001/REC-SVG-20010904/DTD/svg10.dtd">
<svg version="1.0" xmlns="http://www.w3.org/2000/svg"
 width="512.000000pt" height="512.000000pt" viewBox="0 0 512.000000 512.000000"
 preserveAspectRatio="xMidYMid meet">
<metadata>
Created by potrace 1.16, written by Peter Selinger 2001-2019
</metadata>
<g transform="translate(0.000000,512.000000) scale(0.100000,-0.100000)"
fill="#000000" stroke="none">
<path d="M2560 4580 l0 -540 33 4 c58 7 124 46 181 106 131 137 146 309 50
589 -34 99 -76 181 -130 257 -43 61 -106 124 -124 124 -6 0 -10 -200 -10 -540z"/>
<path d="M1729 3863 c-3 -149 23 -259 101 -420 82 -170 173 -285 265 -332 66
-33 163 -54 222 -47 60 7 136 31 171 54 24 15 23 16 -360 399 -210 210 -386
383 -390 383 -5 0 -8 -17 -9 -37z"/>
<path d="M2992 3517 c-383 -383 -384 -384 -360 -399 13 -9 45 -23 70 -31 190
-65 369 5 499 196 94 137 186 373 189 488 3 89 0 129 -8 129 -4 0 -180 -173
-390 -383z"/>
<path d="M920 3164 c-113 -122 -179 -391 -123 -499 26 -51 67 -92 115 -116
l38 -19 0 -136 0 -136 -52 47 c-93 84 -293 163 -386 152 -24 -2 -46 -7 -49
-10 -3 -3 -5 -33 -4 -66 1 -117 82 -299 171 -388 70 -71 189 -93 278 -53 l42
19 0 -133 0 -133 -39 37 c-89 85 -238 149 -363 157 l-88 6 -1 -34 c-3 -108 16
-184 78 -301 74 -142 156 -202 273 -202 41 0 77 6 97 17 18 9 34 17 38 17 3 0
5 -59 5 -131 l0 -131 -49 44 c-98 88 -293 166 -388 155 -24 -2 -47 -7 -50 -10
-3 -3 -5 -33 -4 -66 1 -117 82 -299 171 -388 70 -71 189 -93 278 -53 l42 19 0
-158 0 -158 -35 33 c-47 44 -185 111 -255 124 -72 14 -108 5 -116 -26 -18 -73
73 -294 147 -357 67 -58 155 -70 242 -32 13 5 17 2 17 -14 0 -13 -9 -25 -23
-30 -35 -13 -57 -54 -57 -105 0 -36 6 -50 31 -75 26 -26 38 -31 79 -31 41 0
53 5 79 31 25 25 31 39 31 75 0 51 -22 92 -57 105 -14 5 -23 17 -23 30 0 16 4
19 18 14 86 -38 174 -26 241 32 74 63 165 284 147 357 -8 31 -44 40 -116 26
-70 -13 -208 -80 -255 -124 l-35 -33 0 158 0 158 43 -19 c85 -39 205 -18 272
47 91 89 166 252 173 379 4 79 4 81 -19 87 -96 26 -308 -50 -420 -151 l-49
-44 0 131 c0 72 2 131 5 131 4 0 20 -8 38 -17 20 -11 56 -17 97 -17 117 0 199
60 273 202 62 117 81 193 78 301 l-1 34 -87 -6 c-126 -8 -275 -72 -364 -157
l-39 -37 0 133 0 133 43 -19 c88 -40 207 -18 277 53 89 89 170 271 171 388 1
33 -1 63 -4 66 -3 3 -25 8 -49 10 -93 11 -293 -68 -386 -152 l-52 -47 0 136 0
136 38 19 c48 24 89 65 115 116 41 79 22 231 -48 382 -35 77 -107 163 -135
163 -10 0 -37 -21 -60 -46z"/>
<path d="M4080 3164 c-113 -122 -179 -391 -123 -499 26 -51 67 -92 115 -116
l38 -19 0 -136 0 -136 -52 47 c-93 84 -293 163 -386 152 -24 -2 -46 -7 -49
-10 -3 -3 -5 -33 -4 -66 1 -117 82 -299 171 -388 70 -71 189 -93 278 -53 l42
19 0 -133 0 -133 -39 37 c-89 85 -238 149 -363 157 l-88 6 -1 -34 c-3 -108 16
-184 78 -301 74 -142 156 -202 273 -202 41 0 77 6 97 17 18 9 34 17 38 17 3 0
5 -59 5 -131 l0 -131 -49 44 c-98 88 -293 166 -388 155 -24 -2 -47 -7 -50 -10
-3 -3 -5 -33 -4 -66 1 -117 82 -299 171 -388 70 -71 189 -93 278 -53 l42 19 0
-158 0 -158 -35 33 c-47 44 -185 111 -255 124 -72 14 -108 5 -116 -26 -18 -73
73 -294 147 -357 67 -58 155 -70 242 -32 13 5 17 2 17 -14 0 -13 -9 -25 -23
-30 -35 -13 -57 -54 -57 -105 0 -36 6 -50 31 -75 26 -26 38 -31 79 -31 41 0
53 5 79 31 25 25 31 39 31 75 0 51 -22 92 -57 105 -14 5 -23 17 -23 30 0 16 4
19 18 14 86 -38 174 -26 241 32 74 63 165 284 147 357 -8 31 -44 40 -116 26
-70 -13 -208 -80 -255 -124 l-35 -33 0 158 0 158 43 -19 c88 -40 207 -18 277
53 89 89 170 271 171 388 1 33 -1 63 -4 66 -3 3 -26 8 -50 10 -95 11 -290 -67
-388 -155 l-49 -44 0 131 c0 72 2 131 5 131 4 0 20 -8 38 -17 20 -11 56 -17
97 -17 117 0 199 60 273 202 62 117 81 193 78 301 l-1 34 -87 -6 c-126 -8
-275 -72 -364 -157 l-39 -37 0 133 0 133 43 -19 c88 -40 207 -18 277 53 89 89
170 271 171 388 1 33 -1 63 -4 66 -3 3 -25 8 -49 10 -93 11 -293 -68 -386
-152 l-52 -47 0 136 0 136 38 19 c48 24 89 65 115 116 41 79 22 231 -48 382
-35 77 -107 163 -135 163 -10 0 -37 -21 -60 -46z"/>
<path d="M1735 2991 c-11 -18 -7 -154 6 -208 44 -184 156 -398 263 -504 113
-112 278 -145 432 -88 29 11 57 25 63 32 8 10 -84 107 -373 396 -243 243 -386
379 -391 372z"/>
<path d="M2991 2616 l-384 -384 24 -16 c100 -65 265 -70 385 -11 142 70 303
325 363 578 14 57 16 196 4 208 -5 5 -174 -157 -392 -375z"/>
<path d="M1735 2090 c-12 -20 -7 -151 9 -221 47 -202 193 -453 308 -532 80
-55 130 -70 233 -71 78 -1 99 3 158 28 37 15 67 31 67 35 0 3 -173 179 -384
390 -254 254 -386 379 -391 371z"/>
<path d="M2992 1717 c-210 -210 -382 -385 -382 -388 0 -4 30 -20 67 -35 59
-25 80 -29 158 -28 103 1 153 16 233 71 115 79 261 330 308 532 17 74 21 208
7 222 -5 5 -163 -146 -391 -374z"/>
<path d="M1866 1029 c-21 -107 66 -357 177 -505 80 -106 160 -148 282 -148 62
0 92 5 133 23 28 13 52 26 52 30 0 8 -623 631 -631 631 -4 0 -9 -14 -13 -31z"/>
<path d="M2922 747 c-171 -171 -312 -315 -312 -318 0 -4 24 -17 53 -30 40 -18
70 -23 132 -23 85 0 129 14 198 61 105 73 232 316 257 493 9 65 5 130 -9 130
-3 0 -147 -141 -319 -313z"/>
</g>
</svg>
